<?xml version="1.0" encoding="UTF-8" standalone="no"?>
<!-- Created with Inkscape (http://www.inkscape.org/) -->

<svg
   width="607.67896"
   height="195.73347"
   viewBox="0 0 160.78178 51.787815"
   version="1.1"
   id="svg5"
   inkscape:version="1.1 (c68e22c387, 2021-05-23)"
   sodipodi:docname="robart.svg"
   inkscape:export-filename="/home/philip/Documents/robart/webapp/assets/robart.png"
   inkscape:export-xdpi="96"
   inkscape:export-ydpi="96"
   xmlns:inkscape="http://www.inkscape.org/namespaces/inkscape"
   xmlns:sodipodi="http://sodipodi.sourceforge.net/DTD/sodipodi-0.dtd"
   xmlns="http://www.w3.org/2000/svg"
   xmlns:svg="http://www.w3.org/2000/svg">
  <sodipodi:namedview
     id="namedview7"
     pagecolor="#ffffff"
     bordercolor="#111111"
     borderopacity="1"
     inkscape:pageshadow="0"
     inkscape:pageopacity="0"
     inkscape:pagecheckerboard="false"
     inkscape:document-units="mm"
     showgrid="true"
     width="400px"
     units="px"
     showguides="true"
     showborder="true"
     inkscape:showpageshadow="true"
     inkscape:lockguides="false"
     inkscape:snap-global="false"
     inkscape:zoom="1.985134"
     inkscape:cx="316.35144"
     inkscape:cy="123.92111"
     inkscape:window-width="2560"
     inkscape:window-height="1053"
     inkscape:window-x="0"
     inkscape:window-y="740"
     inkscape:window-maximized="1"
     inkscape:current-layer="layer1"
     fit-margin-top="0"
     fit-margin-left="0"
     fit-margin-right="0"
     fit-margin-bottom="0">
    <inkscape:grid
       type="xygrid"
       id="grid67"
       units="px"
       snapvisiblegridlinesonly="true"
       dotted="false"
       visible="true"
       enabled="true"
       originx="-0.54747653"
       originy="-0.56783276" />
  </sodipodi:namedview>
  <defs
     id="defs2">
    <rect
       x="693.9079"
       y="403.51617"
       width="192.59483"
       height="54.31308"
       id="rect16403" />
    <rect
       x="688.70087"
       y="383.46243"
       width="76.810295"
       height="59.492634"
       id="rect11037" />
    <clipPath
       clipPathUnits="userSpaceOnUse"
       id="clipPath38211">
      <path
         id="path38213"
         style="fill:#ff0000;fill-opacity:1;fill-rule:nonzero;stroke:none;stroke-width:0.264583"
         d="m 168.07191,102.48263 v 8.24653 h 6.00945 c -0.0785,-0.0159 -0.15614,-0.0348 -0.23203,-0.0579 -0.0246,-0.002 -0.0496,-0.005 -0.076,-0.008 -0.0911,-0.01 -0.18122,-0.0269 -0.27182,-0.0403 -0.11579,-0.0632 -0.29016,-0.0708 -0.34726,-0.18965 -0.0398,-0.0826 -0.0651,-0.17087 -0.0806,-0.262 -0.0977,-0.10914 -0.16228,-0.21515 -0.2005,-0.43202 -0.0839,-0.47597 0.11067,-0.94981 0.45216,-1.27796 0.0408,-0.068 0.0887,-0.13303 0.14367,-0.19327 0.10633,-0.11661 0.24096,-0.20802 0.38085,-0.28112 0.28469,-0.14868 0.50082,-0.15659 0.79427,-0.18603 0.0736,-0.0426 0.15475,-0.076 0.24391,-0.0971 0.0825,-0.0196 0.15942,-0.0287 0.23306,-0.0289 0.26301,-7.9e-4 0.47871,0.11087 0.71107,0.25683 0.0924,0.0581 0.17175,0.13539 0.25735,0.20309 0.1569,0.16339 0.23312,0.22259 0.34623,0.41961 0.0432,0.0753 0.0838,0.1538 0.108,0.2372 0.0588,0.2027 0.0756,0.4226 0.0108,0.62735 -0.01,0.0313 -0.0217,0.0615 -0.0351,0.0915 0,0 0,5.3e-4 0,5.3e-4 -0.004,0.0708 -0.0136,0.14523 -0.0346,0.24649 -0.017,0.0817 -0.0308,0.16731 -0.0703,0.24082 -0.0682,0.12684 -0.1478,0.25056 -0.24908,0.35294 -0.23584,0.23843 -0.40844,0.2526 -0.71624,0.35296 -0.0283,0.003 -0.057,0.007 -0.0853,0.0103 -0.0196,0.005 -0.039,0.01 -0.0584,0.0145 h 6.50968 v -8.24652 z" />
    </clipPath>
    <clipPath
       clipPathUnits="userSpaceOnUse"
       id="clipPath200">
      <path
         id="path202"
         style="fill:#ff0000;fill-opacity:1;fill-rule:nonzero;stroke:none;stroke-width:0.264583"
         d="m 182.07135,106.95325 -6.87895,5.1e-4 v 12.3734 h 6.87912 v -6.7776 c -0.002,-0.006 -0.007,-0.0106 -0.0103,-0.0153 -0.009,-0.0126 -0.017,-0.0252 -0.0266,-0.0372 -0.007,-0.0103 -0.0121,-0.0171 -0.0185,-0.0279 -0.003,-0.006 -0.006,-0.0114 -0.009,-0.0173 -0.0549,0.0365 -0.11406,0.0641 -0.178,0.0746 -0.14362,0.0237 -0.2743,-0.0982 -0.4113,-0.14741 -0.0485,-0.12668 -0.11782,-0.24736 -0.14522,-0.38021 -0.0174,-0.0845 0.0101,-0.17231 0.014,-0.25851 0.006,-0.1291 0.012,-0.25775 0.016,-0.38692 0.002,-0.0718 0.004,-0.14387 0.006,-0.21565 -0.003,-0.008 -0.005,-0.0155 -0.008,-0.0237 h 5.2e-4 c -0.0856,-0.26323 -0.0667,-0.47868 0.008,-0.62426 -0.009,-0.26569 -0.006,-0.53158 -0.004,-0.79738 0.0854,-0.13269 0.0988,-0.38886 0.25632,-0.39786 0.0341,-0.002 0.0667,-0.003 0.0972,-0.003 0.19881,10e-4 0.3262,0.0467 0.41281,0.12236 z m 1.7e-4,5.45075 c -5.2e-4,4.3e-4 -0.001,8.9e-4 -0.002,0.001 3.5e-4,6.8e-4 5.2e-4,7.7e-4 8.6e-4,0.002 3.5e-4,7.8e-4 5.2e-4,0.001 8.6e-4,0.002 z" />
    </clipPath>
  </defs>
  <g
     inkscape:label="Layer 1"
     inkscape:groupmode="layer"
     id="layer1"
     style="display:inline"
     transform="translate(-0.54747634,-0.56783276)">
    <path
       id="path1995"
       style="display:inline;fill:#537a5a;fill-opacity:1;stroke:#537a5a;stroke-width:0.264583px;stroke-linecap:butt;stroke-linejoin:miter;stroke-opacity:1"
       d="m 174.94371,102.63687 -6.61458,3.96875 4.6085,2.76469 c 0.009,-7.9e-4 0.0183,-0.002 0.0274,-0.003 0.0649,-0.006 0.12982,-0.0125 0.19482,-0.0165 0.0926,-0.006 0.13591,-0.007 0.19999,-0.007 0.0213,-7e-5 0.0454,1.3e-4 0.0739,0 0.22121,0.005 0.44225,0.008 0.66352,0.008 0.0476,-0.001 0.14735,-0.002 0.19844,-0.002 0.0342,-1.4e-4 0.0686,-7.9e-4 0.10284,-5.3e-4 0.0256,0 0.20717,0.004 0.23047,0.004 0.144,0.002 0.28801,0.002 0.43202,0.001 0.13647,-0.002 0.27314,-7.9e-4 0.40927,0.01 0.0525,0.004 0.10057,0.009 0.15297,0.0155 0.023,0.002 0.0457,0.005 0.0687,0.007 0.17704,0.0166 -0.0423,-0.004 0.15296,0.0139 0.1161,0.0107 0.23175,0.0231 0.34778,0.0346 0.14011,0.0164 0.28166,0.0308 0.41806,0.0687 0.0574,0.0159 0.0398,0.0142 0.0698,0.0279 l 4.87773,-2.92643 z m -1.58388,6.74429 c -0.0634,1e-4 -0.10658,0.001 -0.19792,0.007 -0.057,0.004 -0.11371,0.009 -0.17053,0.0145 l 0.37723,0.22634 c 0.005,1.2e-4 0.01,5.3e-4 0.0145,5.3e-4 0.0581,10e-4 0.11605,0.002 0.17415,0.002 0.23599,7.9e-4 0.24093,7.9e-4 0.46508,5.3e-4 0.008,-2e-5 0.0159,1e-5 0.0238,0 1.9e-4,-10e-5 8e-4,-5.3e-4 0.001,-5.3e-4 0.0119,-0.006 0.0224,-0.0151 0.0351,-0.0191 0.0187,-0.007 0.0387,-0.0104 0.0584,-0.0124 0.0443,-0.005 0.0891,-0.007 0.13435,-0.007 0.0755,-0.001 0.15185,0.002 0.22531,0.003 0.22161,0.0129 0.32466,0.0168 0.54932,0.0403 0.0348,0.004 0.0693,0.008 0.10387,0.0129 0.13114,-5.3e-4 0.0758,-0.001 0.37207,-5.3e-4 0.0968,-0.001 0.19289,0.007 0.28939,0.0134 0.0548,0.004 0.12348,0.006 0.17829,0.0109 0.0249,0.003 0.0491,0.007 0.0739,0.01 0.0186,0.004 0.0378,0.007 0.0563,0.0108 0.0388,0.009 0.0962,0.0257 0.13487,0.0357 0.0238,0.006 0.0459,0.0106 0.0682,0.015 l 0.31677,-0.19017 c -0.005,-0.003 -0.0106,-0.005 -0.0429,-0.0145 -0.13466,-0.0375 -0.27404,-0.0514 -0.41237,-0.0677 -0.11587,-0.0115 -0.23185,-0.0239 -0.34779,-0.0346 -0.0567,-0.005 -0.0766,-0.007 -0.0832,-0.007 0.008,7.9e-4 0.0185,0.002 -0.0698,-0.006 -0.0231,-0.002 -0.0467,-0.005 -0.0698,-0.007 -0.0513,-0.005 -0.0995,-0.011 -0.1509,-0.015 -0.13525,-0.0107 -0.2711,-0.0123 -0.40669,-0.0104 -0.14429,2e-4 -0.28877,0.002 -0.43305,-5.3e-4 -0.0203,0 -0.20644,-0.004 -0.22944,-0.004 -0.0341,-2.3e-4 -0.0682,2.4e-4 -0.10232,5.3e-4 -0.0513,10e-4 -0.15106,0.002 -0.19896,0.002 -0.2212,0 -0.44238,-0.003 -0.66352,-0.008 -0.0282,0 -0.0517,-3e-5 -0.0729,0 z m 0.0775,0.28939 0.2682,0.16123 c 0.0124,-0.0107 0.0246,-0.0215 0.0383,-0.032 0.0503,-0.0388 0.11296,-0.0694 0.16846,-0.0992 0.005,-0.003 0.032,-0.0163 0.0548,-0.0279 -0.15688,1.5e-4 -0.20188,1.1e-4 -0.4098,-5.3e-4 -0.04,-8e-4 -0.0799,-0.001 -0.11989,-0.002 z m 0.81184,10e-4 c -0.0283,-2.5e-4 -0.057,5.3e-4 -0.0853,5.3e-4 -0.0316,1.3e-4 -0.0631,5.3e-4 -0.0946,5.3e-4 -0.018,0.01 -0.0365,0.019 -0.0548,0.0279 -0.027,0.0137 -0.0541,0.0275 -0.0811,0.0413 -0.0539,0.029 -0.11553,0.0593 -0.16433,0.0971 -0.007,0.006 -0.014,0.0122 -0.0212,0.0181 l 0.82527,0.49506 c 0.10231,-0.009 0.20458,-0.0173 0.30696,-0.0253 0.0766,-0.006 0.24358,-0.0197 0.33849,-0.0227 0.0226,-7.9e-4 0.0443,-10e-4 0.0661,-0.002 0.0365,-2.4e-4 0.0727,2.3e-4 0.10904,0.002 l 0.60823,-0.36483 c -0.0912,-0.0345 -0.21314,-0.0735 -0.28939,-0.0987 -0.16598,-0.0527 -0.33243,-0.10591 -0.50436,-0.13591 -0.0346,-0.006 -0.0695,-0.0107 -0.10439,-0.015 -0.0366,1.2e-4 3e-5,-1.3e-4 -0.061,0 -0.094,2e-4 -0.18815,5.3e-4 -0.28215,0 -0.1034,0 -0.1641,-0.003 -0.26613,-0.007 -0.035,-0.002 -0.0699,-0.003 -0.10491,-0.005 -0.051,-0.003 -0.0901,-0.006 -0.14056,-0.006 z m 1.11053,0.0176 c 0.12414,0.0301 0.24633,0.0689 0.36793,0.10748 0.088,0.0291 0.23027,0.0742 0.32453,0.11214 l 0.22531,-0.13487 c -0.01,-0.002 -0.0188,-0.004 -0.0289,-0.007 -0.0338,-0.009 -0.0981,-0.0272 -0.13229,-0.0351 -0.0178,-0.004 -0.0358,-0.007 -0.0537,-0.01 -0.024,-0.003 -0.0478,-0.007 -0.0718,-0.009 -0.0542,-0.006 -0.12419,-0.008 -0.17829,-0.0109 -0.0956,-0.005 -0.1908,-0.0139 -0.2868,-0.0129 -0.13228,-5.3e-4 -0.14901,3e-5 -0.16588,0 z m -0.076,0.66094 c -0.0215,1.2e-4 -0.043,7.9e-4 -0.0651,0.002 -0.0931,0.003 -0.26188,0.0168 -0.33538,0.0227 -0.0799,0.006 -0.15993,0.0129 -0.23978,0.0196 l 0.30024,0.18035 0.3731,-0.22375 c -0.011,-10e-5 -0.022,-5.3e-4 -0.0331,-5.3e-4 z"
       clip-path="url(#clipPath38211)"
       transform="matrix(3.074467,0,0,3.074467,-515.58826,-314.51152)" />
    <path
       style="display:inline;fill:#537a5a;fill-opacity:1;stroke:#537a5a;stroke-width:0.264583px;stroke-linecap:butt;stroke-linejoin:miter;stroke-opacity:1"
       d="m 181.9391,107.18742 v 7.9375 l -6.61458,3.96875 v -7.9375 z"
       id="path1999"
       clip-path="url(#clipPath200)"
       transform="matrix(3.074467,0,0,3.074467,-515.58826,-314.51152)" />
    <path
       style="display:inline;fill:#537a5a;fill-opacity:1;stroke:#537a5a;stroke-width:0.813452px;stroke-linecap:butt;stroke-linejoin:miter;stroke-opacity:1"
       d="M 0.95420234,14.936826 21.290541,27.138616 V 51.542199 L 0.95420234,39.340408 Z"
       id="path2001" />
    <text
       xml:space="preserve"
       transform="scale(0.26458333)"
       id="text11035"
       style="font-style:normal;font-weight:normal;font-size:40px;line-height:1.25;font-family:sans-serif;white-space:pre;shape-inside:url(#rect11037);fill:#000000;fill-opacity:1;stroke:none"><tspan
         x="688.70117"
         y="478.3457"
         id="tspan750"><tspan
           dx="0 25.996094 24.472656 25.390625 24.511719 16.445312"
           id="tspan748">Robart</tspan></tspan></text>
    <text
       xml:space="preserve"
       transform="matrix(0.8134527,0,0,0.8134527,-554.32513,-319.34391)"
       id="text16401"
       style="font-style:normal;font-weight:normal;font-size:40px;line-height:1.25;font-family:sans-serif;white-space:pre;shape-inside:url(#rect16403);display:inline;fill:#9ae19d;fill-opacity:1;stroke:#537a5a;stroke-width:1.37953;stroke-miterlimit:4;stroke-dasharray:none;stroke-opacity:1"><tspan
         x="693.9082"
         y="438.90625"
         id="tspan754"><tspan
           style="font-style:italic;font-weight:bold;-inkscape-font-specification:'sans-serif Bold Italic';paint-order:markers fill stroke"
           id="tspan752">R</tspan></tspan></text>
  </g>
</svg>
